<svg width="155" height="96" viewBox="0 0 155 96" fill="none" xmlns="http://www.w3.org/2000/svg">
<path d="M131.268 36.431C131.268 37.5911 131.114 38.7103 130.807 39.7884C130.511 40.8548 130.086 41.8567 129.53 42.7942C128.974 43.72 128.312 44.5696 127.543 45.3431C126.775 46.1048 125.917 46.761 124.971 47.3118C124.025 47.8626 123.008 48.2903 121.921 48.595C120.845 48.888 119.721 49.0345 118.551 49.0345H110.888V23.8275H118.551C119.721 23.8275 120.845 23.9798 121.921 24.2845C123.008 24.5775 124.025 24.9993 124.971 25.5501C125.917 26.1009 126.775 26.763 127.543 27.5364C128.312 28.2982 128.974 29.1478 129.53 30.0853C130.086 31.011 130.511 32.013 130.807 33.0911C131.114 34.1575 131.268 35.2708 131.268 36.431ZM126.177 36.431C126.177 35.388 125.976 34.4095 125.574 33.4954C125.184 32.5814 124.64 31.7845 123.943 31.1048C123.257 30.4134 122.447 29.8685 121.513 29.47C120.59 29.0716 119.603 28.8724 118.551 28.8724H116.014V43.9896H118.551C119.603 43.9896 120.59 43.7962 121.513 43.4095C122.447 43.011 123.257 42.472 123.943 41.7923C124.64 41.1009 125.184 40.2982 125.574 39.3841C125.976 38.4583 126.177 37.4739 126.177 36.431Z" fill="white"/>
<path d="M155 41.4759C155 42.5189 154.799 43.4974 154.397 44.4114C153.995 45.3255 153.445 46.1282 152.747 46.8196C152.062 47.4993 151.258 48.0384 150.335 48.4368C149.413 48.8353 148.426 49.0345 147.373 49.0345H134.656V23.8275H147.373C148.426 23.8275 149.413 24.0267 150.335 24.4251C151.258 24.8235 152.062 25.3685 152.747 26.0599C153.445 26.7396 153.995 27.5364 154.397 28.4505C154.799 29.3646 155 30.3431 155 31.386C155 31.8548 154.935 32.3353 154.805 32.8274C154.675 33.3196 154.492 33.7942 154.255 34.2513C154.019 34.7083 153.735 35.1243 153.404 35.4993C153.073 35.8743 152.706 36.1849 152.304 36.431C152.718 36.6536 153.09 36.9583 153.421 37.345C153.753 37.72 154.036 38.136 154.273 38.5931C154.509 39.0501 154.687 39.5306 154.805 40.0345C154.935 40.5267 155 41.0071 155 41.4759ZM139.746 43.9896H147.373C147.728 43.9896 148.059 43.9251 148.366 43.7962C148.674 43.6673 148.94 43.4915 149.165 43.2689C149.401 43.0345 149.584 42.7649 149.714 42.4603C149.844 42.1556 149.91 41.8274 149.91 41.4759C149.91 41.1243 149.844 40.7962 149.714 40.4915C149.584 40.1868 149.401 39.9232 149.165 39.7005C148.94 39.4661 148.674 39.2845 148.366 39.1556C148.059 39.0267 147.728 38.9622 147.373 38.9622H139.746V43.9896ZM139.746 33.9173H147.373C147.728 33.9173 148.059 33.8528 148.366 33.7239C148.674 33.595 148.94 33.4192 149.165 33.1966C149.401 32.9622 149.584 32.6927 149.714 32.388C149.844 32.0716 149.91 31.7376 149.91 31.386C149.91 31.0345 149.844 30.7064 149.714 30.4017C149.584 30.097 149.401 29.8333 149.165 29.6107C148.94 29.3763 148.674 29.1946 148.366 29.0657C148.059 28.9368 147.728 28.8724 147.373 28.8724H139.746V33.9173Z" fill="white"/>
<path fill-rule="evenodd" clip-rule="evenodd" d="M0 59.5862H154.695V65.7931C154.695 69.2211 150.63 72 145.614 72H9.08131C4.06584 72 0 69.2211 0 65.7931V59.5862ZM18.1626 62.5826H31.3149C33.0443 62.5826 34.4463 63.5409 34.4463 64.723V66.8633C34.4463 68.0453 33.0443 69.0036 31.3149 69.0036H18.1626C16.4331 69.0036 15.0311 68.0453 15.0311 66.8633V64.723C15.0311 63.5409 16.4331 62.5826 18.1626 62.5826ZM66.3875 62.5826H53.2353C51.5058 62.5826 50.1038 63.5409 50.1038 64.723V66.8633C50.1038 68.0453 51.5058 69.0036 53.2353 69.0036H66.3875C68.117 69.0036 69.519 68.0453 69.519 66.8633V64.723C69.519 63.5409 68.117 62.5826 66.3875 62.5826ZM88.3079 62.5826H101.46C103.19 62.5826 104.592 63.5409 104.592 64.723V66.8633C104.592 68.0453 103.19 69.0036 101.46 69.0036H88.3079C86.5784 69.0036 85.1764 68.0453 85.1764 66.8633V64.723C85.1764 63.5409 86.5784 62.5826 88.3079 62.5826ZM136.533 62.5826H123.381C121.651 62.5826 120.249 63.5409 120.249 64.723V66.8633C120.249 68.0453 121.651 69.0036 123.381 69.0036H136.533C138.262 69.0036 139.664 68.0453 139.664 66.8633V64.723C139.664 63.5409 138.262 62.5826 136.533 62.5826Z" fill="white"/>
<path fill-rule="evenodd" clip-rule="evenodd" d="M0 12.4138H154.695V6.2069C154.695 2.77892 150.63 0 145.614 0H9.08131C4.06584 0 0 2.77892 0 6.2069V12.4138ZM18.1626 9.41736H31.3149C33.0443 9.41736 34.4463 8.45911 34.4463 7.27705V5.13674C34.4463 3.95468 33.0443 2.99643 31.3149 2.99643H18.1626C16.4331 2.99643 15.0311 3.95468 15.0311 5.13674V7.27705C15.0311 8.45911 16.4331 9.41736 18.1626 9.41736ZM66.3875 9.41736H53.2353C51.5058 9.41736 50.1038 8.45911 50.1038 7.27705V5.13674C50.1038 3.95468 51.5058 2.99643 53.2353 2.99643H66.3875C68.117 2.99643 69.519 3.95468 69.519 5.13674V7.27705C69.519 8.45911 68.117 9.41736 66.3875 9.41736ZM88.3079 9.41736H101.46C103.19 9.41736 104.592 8.45911 104.592 7.27705V5.13674C104.592 3.95468 103.19 2.99643 101.46 2.99643H88.3079C86.5784 2.99643 85.1764 3.95468 85.1764 5.13674V7.27705C85.1764 8.45911 86.5784 9.41736 88.3079 9.41736ZM136.533 9.41736H123.381C121.651 9.41736 120.249 8.45911 120.249 7.27705V5.13674C120.249 3.95468 121.651 2.99643 123.381 2.99643H136.533C138.262 2.99643 139.664 3.95468 139.664 5.13674V7.27705C139.664 8.45911 138.262 9.41736 136.533 9.41736Z" fill="white"/>
<path d="M25.4322 49.4364H20.3564V30.8182C20.3564 30.4545 20.2855 30.1152 20.1435 29.8C20.0133 29.4848 19.8299 29.2121 19.5933 28.9818C19.3685 28.7394 19.1023 28.5515 18.7947 28.4182C18.487 28.2848 18.1557 28.2182 17.8008 28.2182C17.4458 28.2182 17.1146 28.2848 16.8069 28.4182C16.4993 28.5515 16.2272 28.7394 15.9905 28.9818C15.7657 29.2121 15.5883 29.4848 15.4581 29.8C15.328 30.1152 15.2629 30.4545 15.2629 30.8182V49.4364H10.1693V30.8182C10.1693 30.4545 10.1043 30.1152 9.97413 29.8C9.84398 29.4848 9.66059 29.2121 9.42395 28.9818C9.19915 28.7394 8.93294 28.5515 8.62531 28.4182C8.31769 28.2848 7.9864 28.2182 7.63145 28.2182C7.2765 28.2182 6.94521 28.2848 6.63758 28.4182C6.32996 28.5515 6.05783 28.7394 5.8212 28.9818C5.5964 29.2121 5.41892 29.4848 5.28877 29.8C5.15862 30.1152 5.09355 30.4545 5.09355 30.8182V49.4364H0V30.8182C0 29.7394 0.195223 28.7273 0.585669 27.7818C0.987947 26.8242 1.53221 25.9939 2.21844 25.2909C2.91651 24.5758 3.72699 24.0182 4.64986 23.6182C5.58456 23.2061 6.57843 23 7.63145 23C8.57798 23 9.48903 23.1758 10.3646 23.5273C11.2401 23.8667 12.0269 24.3636 12.725 25.0182C13.4231 24.3636 14.204 23.8667 15.0677 23.5273C15.9432 23.1758 16.8543 23 17.8008 23C18.8538 23 19.8418 23.2061 20.7646 23.6182C21.6993 24.0182 22.5098 24.5758 23.1961 25.2909C23.8941 25.9939 24.4384 26.8242 24.8288 27.7818C25.2311 28.7273 25.4322 29.7394 25.4322 30.8182V49.4364Z" fill="#81BECB"/>
<path d="M54.9287 36.5091C54.9287 37.7455 54.769 38.9394 54.4495 40.0909C54.1419 41.2303 53.7041 42.303 53.1362 43.3091C52.5683 44.303 51.882 45.2121 51.0775 46.0364C50.2729 46.8606 49.3855 47.5697 48.4153 48.1636C47.4451 48.7455 46.398 49.1939 45.274 49.5091C44.15 49.8364 42.9846 50 41.7777 50C40.5709 50 39.4055 49.8364 38.2815 49.5091C37.1693 49.1939 36.1222 48.7455 35.1402 48.1636C34.17 47.5697 33.2826 46.8606 32.478 46.0364C31.6735 45.2121 30.9813 44.303 30.4016 43.3091C29.8336 42.303 29.3899 41.2303 29.0705 40.0909C28.7629 38.9394 28.6091 37.7455 28.6091 36.5091C28.6091 35.2727 28.7629 34.0788 29.0705 32.9273C29.3899 31.7758 29.8336 30.703 30.4016 29.7091C30.9813 28.7152 31.6735 27.8061 32.478 26.9818C33.2826 26.1576 34.17 25.4545 35.1402 24.8727C36.1222 24.2909 37.1693 23.8424 38.2815 23.5273C39.4055 23.2 40.5709 23.0364 41.7777 23.0364C42.9846 23.0364 44.15 23.2 45.274 23.5273C46.398 23.8424 47.4451 24.2909 48.4153 24.8727C49.3855 25.4545 50.2729 26.1576 51.0775 26.9818C51.882 27.8061 52.5683 28.7152 53.1362 29.7091C53.7041 30.703 54.1419 31.7758 54.4495 32.9273C54.769 34.0788 54.9287 35.2727 54.9287 36.5091ZM49.8706 36.5091C49.8706 35.3697 49.6577 34.297 49.2317 33.2909C48.8058 32.2727 48.226 31.3939 47.4925 30.6545C46.7707 29.903 45.9129 29.3091 44.9191 28.8727C43.937 28.4364 42.8899 28.2182 41.7777 28.2182C40.6537 28.2182 39.6007 28.4364 38.6187 28.8727C37.6366 29.3091 36.7788 29.903 36.0453 30.6545C35.3117 31.3939 34.732 32.2727 34.306 33.2909C33.8801 34.297 33.6671 35.3697 33.6671 36.5091C33.6671 37.6485 33.8801 38.7212 34.306 39.7273C34.732 40.7212 35.3117 41.5939 36.0453 42.3455C36.7788 43.097 37.6366 43.6909 38.6187 44.1273C39.6007 44.5636 40.6537 44.7818 41.7777 44.7818C42.8899 44.7818 43.937 44.5636 44.9191 44.1273C45.9129 43.6909 46.7707 43.097 47.4925 42.3455C48.226 41.5939 48.8058 40.7212 49.2317 39.7273C49.6577 38.7212 49.8706 37.6485 49.8706 36.5091Z" fill="#81BECB"/>
<path d="M77.2728 23.3636L68.9138 49.4364H63.8202L55.4966 23.3636H61.2823L66.3581 40.7636L71.4517 23.3636H77.2728Z" fill="#81BECB"/>
<path d="M84.8156 49.4364H79.722V23.3636H84.8156V49.4364Z" fill="#81BECB"/>
<path d="M107 49.4364H89.5542V23.3636H107V28.5818H94.6477V33.8H103.007V39.0182H94.6477V44.2182H107V49.4364Z" fill="#81BECB"/>
<path d="M3.77344 89.9922L5.74902 83.0469H6.70605L6.15234 85.7471L4.02637 93H3.07617L3.77344 89.9922ZM1.72949 83.0469L3.30176 89.8555L3.77344 93H2.83008L0.416992 83.0469H1.72949ZM9.2627 89.8486L10.8008 83.0469H12.1201L9.71387 93H8.77051L9.2627 89.8486ZM6.84961 83.0469L8.77051 89.9922L9.46777 93H8.51758L6.4668 85.7471L5.90625 83.0469H6.84961ZM16.3422 93.1367C15.8272 93.1367 15.3601 93.0501 14.9408 92.877C14.5261 92.6992 14.1684 92.4508 13.8676 92.1318C13.5714 91.8128 13.3435 91.4346 13.184 90.9971C13.0245 90.5596 12.9447 90.0811 12.9447 89.5615V89.2744C12.9447 88.6729 13.0336 88.1374 13.2113 87.668C13.3891 87.194 13.6306 86.793 13.9359 86.4648C14.2413 86.1367 14.5876 85.8883 14.975 85.7197C15.3624 85.5511 15.7634 85.4668 16.1781 85.4668C16.7068 85.4668 17.1625 85.5579 17.5453 85.7402C17.9327 85.9225 18.2494 86.1777 18.4955 86.5059C18.7416 86.8294 18.9239 87.2122 19.0424 87.6543C19.1609 88.0918 19.2201 88.5703 19.2201 89.0898V89.6572H13.6967V88.625H17.9555V88.5293C17.9372 88.2012 17.8689 87.8822 17.7504 87.5723C17.6365 87.2624 17.4542 87.0072 17.2035 86.8066C16.9529 86.6061 16.6111 86.5059 16.1781 86.5059C15.891 86.5059 15.6267 86.5674 15.3852 86.6904C15.1436 86.8089 14.9363 86.9867 14.7631 87.2236C14.5899 87.4606 14.4555 87.75 14.3598 88.0918C14.2641 88.4336 14.2162 88.8278 14.2162 89.2744V89.5615C14.2162 89.9124 14.2641 90.2428 14.3598 90.5527C14.46 90.8581 14.6036 91.127 14.7904 91.3594C14.9818 91.5918 15.212 91.7741 15.4809 91.9062C15.7543 92.0384 16.0642 92.1045 16.4105 92.1045C16.8572 92.1045 17.2354 92.0133 17.5453 91.8311C17.8552 91.6488 18.1264 91.4049 18.3588 91.0996L19.1244 91.708C18.9649 91.9495 18.7621 92.1797 18.516 92.3984C18.2699 92.6172 17.9669 92.7949 17.6068 92.9316C17.2514 93.0684 16.8298 93.1367 16.3422 93.1367ZM25.6408 82.5V93H24.3693V82.5H25.6408ZM30.1594 85.6035L26.9328 89.0557L25.1281 90.9287L25.0256 89.582L26.3176 88.0371L28.6145 85.6035H30.1594ZM29.0041 93L26.3654 89.4727L27.0217 88.3447L30.4943 93H29.0041ZM32.8297 87.1826V93H31.565V85.6035H32.7613L32.8297 87.1826ZM32.5289 89.0215L32.0025 89.001C32.0071 88.4951 32.0823 88.028 32.2281 87.5996C32.374 87.1667 32.579 86.7907 32.8434 86.4717C33.1077 86.1527 33.4221 85.9066 33.7867 85.7334C34.1559 85.5557 34.5637 85.4668 35.0104 85.4668C35.3749 85.4668 35.7031 85.5169 35.9947 85.6172C36.2864 85.7129 36.5348 85.8678 36.7398 86.082C36.9495 86.2962 37.109 86.5742 37.2184 86.916C37.3277 87.2533 37.3824 87.6657 37.3824 88.1533V93H36.1109V88.1396C36.1109 87.7523 36.054 87.4424 35.94 87.21C35.8261 86.973 35.6598 86.8021 35.441 86.6973C35.2223 86.5879 34.9534 86.5332 34.6344 86.5332C34.3199 86.5332 34.0328 86.5993 33.773 86.7314C33.5178 86.8636 33.2968 87.0459 33.11 87.2783C32.9277 87.5107 32.7841 87.7773 32.6793 88.0781C32.579 88.3743 32.5289 88.6888 32.5289 89.0215ZM39.0684 89.3838V89.2266C39.0684 88.6934 39.1458 88.1989 39.3008 87.7432C39.4557 87.2829 39.679 86.8841 39.9707 86.5469C40.2624 86.2051 40.6156 85.9408 41.0303 85.7539C41.445 85.5625 41.9098 85.4668 42.4248 85.4668C42.9443 85.4668 43.4115 85.5625 43.8262 85.7539C44.2454 85.9408 44.6009 86.2051 44.8926 86.5469C45.1888 86.8841 45.4144 87.2829 45.5693 87.7432C45.7243 88.1989 45.8018 88.6934 45.8018 89.2266V89.3838C45.8018 89.917 45.7243 90.4115 45.5693 90.8672C45.4144 91.3229 45.1888 91.7217 44.8926 92.0635C44.6009 92.4007 44.2477 92.665 43.833 92.8564C43.4229 93.0433 42.958 93.1367 42.4385 93.1367C41.9189 93.1367 41.4518 93.0433 41.0371 92.8564C40.6224 92.665 40.2669 92.4007 39.9707 92.0635C39.679 91.7217 39.4557 91.3229 39.3008 90.8672C39.1458 90.4115 39.0684 89.917 39.0684 89.3838ZM40.333 89.2266V89.3838C40.333 89.7529 40.3763 90.1016 40.4629 90.4297C40.5495 90.7533 40.6794 91.0404 40.8525 91.291C41.0303 91.5417 41.2513 91.7399 41.5156 91.8857C41.7799 92.027 42.0876 92.0977 42.4385 92.0977C42.7848 92.0977 43.0879 92.027 43.3477 91.8857C43.612 91.7399 43.8307 91.5417 44.0039 91.291C44.1771 91.0404 44.307 90.7533 44.3936 90.4297C44.4847 90.1016 44.5303 89.7529 44.5303 89.3838V89.2266C44.5303 88.862 44.4847 88.5179 44.3936 88.1943C44.307 87.8662 44.1748 87.5768 43.9971 87.3262C43.8239 87.071 43.6051 86.8704 43.3408 86.7246C43.0811 86.5788 42.7757 86.5059 42.4248 86.5059C42.0785 86.5059 41.7731 86.5788 41.5088 86.7246C41.249 86.8704 41.0303 87.071 40.8525 87.3262C40.6794 87.5768 40.5495 87.8662 40.4629 88.1943C40.3763 88.5179 40.333 88.862 40.333 89.2266ZM49.3607 91.6875L51.2611 85.6035H52.0951L51.9311 86.8135L49.9965 93H49.183L49.3607 91.6875ZM48.0824 85.6035L49.7025 91.7559L49.8187 93H48.9643L46.8178 85.6035H48.0824ZM53.9135 91.708L55.4584 85.6035H56.7162L54.5697 93H53.7221L53.9135 91.708ZM52.2797 85.6035L54.1391 91.585L54.351 93H53.5443L51.5551 86.7998L51.391 85.6035H52.2797ZM63.5607 91.6875L65.4611 85.6035H66.2951L66.1311 86.8135L64.1965 93H63.383L63.5607 91.6875ZM62.2824 85.6035L63.9025 91.7559L64.0187 93H63.1643L61.0178 85.6035H62.2824ZM68.1135 91.708L69.6584 85.6035H70.9162L68.7697 93H67.9221L68.1135 91.708ZM66.4797 85.6035L68.3391 91.585L68.551 93H67.7443L65.7551 86.7998L65.591 85.6035H66.4797ZM73.5797 82.5V93H72.315V82.5H73.5797ZM73.2789 89.0215L72.7525 89.001C72.7571 88.4951 72.8323 88.028 72.9781 87.5996C73.124 87.1667 73.329 86.7907 73.5934 86.4717C73.8577 86.1527 74.1721 85.9066 74.5367 85.7334C74.9059 85.5557 75.3137 85.4668 75.7604 85.4668C76.1249 85.4668 76.4531 85.5169 76.7447 85.6172C77.0364 85.7129 77.2848 85.8678 77.4898 86.082C77.6995 86.2962 77.859 86.5742 77.9684 86.916C78.0777 87.2533 78.1324 87.6657 78.1324 88.1533V93H76.8609V88.1396C76.8609 87.7523 76.804 87.4424 76.69 87.21C76.5761 86.973 76.4098 86.8021 76.191 86.6973C75.9723 86.5879 75.7034 86.5332 75.3844 86.5332C75.0699 86.5332 74.7828 86.5993 74.523 86.7314C74.2678 86.8636 74.0468 87.0459 73.86 87.2783C73.6777 87.5107 73.5341 87.7773 73.4293 88.0781C73.329 88.3743 73.2789 88.6888 73.2789 89.0215ZM84.4873 91.7354V87.9277C84.4873 87.6361 84.4281 87.3831 84.3096 87.1689C84.1956 86.9502 84.0225 86.7816 83.79 86.6631C83.5576 86.5446 83.2705 86.4854 82.9287 86.4854C82.6097 86.4854 82.3294 86.54 82.0879 86.6494C81.8509 86.7588 81.6641 86.9023 81.5273 87.0801C81.3952 87.2578 81.3291 87.4492 81.3291 87.6543H80.0645C80.0645 87.39 80.1328 87.1279 80.2695 86.8682C80.4062 86.6084 80.6022 86.3737 80.8574 86.1641C81.1172 85.9499 81.4271 85.7812 81.7871 85.6582C82.1517 85.5306 82.5573 85.4668 83.0039 85.4668C83.5417 85.4668 84.0156 85.5579 84.4258 85.7402C84.8405 85.9225 85.1641 86.1982 85.3965 86.5674C85.6335 86.932 85.752 87.39 85.752 87.9414V91.3867C85.752 91.6328 85.7725 91.8949 85.8135 92.1729C85.859 92.4508 85.9251 92.6901 86.0117 92.8906V93H84.6924C84.6286 92.8542 84.5785 92.6605 84.542 92.4189C84.5055 92.1729 84.4873 91.945 84.4873 91.7354ZM84.7061 88.5156L84.7197 89.4043H83.4414C83.0814 89.4043 82.7601 89.4339 82.4775 89.4932C82.195 89.5479 81.958 89.6322 81.7666 89.7461C81.5752 89.86 81.4294 90.0036 81.3291 90.1768C81.2288 90.3454 81.1787 90.5436 81.1787 90.7715C81.1787 91.0039 81.2311 91.2158 81.3359 91.4072C81.4408 91.5986 81.598 91.7513 81.8076 91.8652C82.0218 91.9746 82.2839 92.0293 82.5938 92.0293C82.9811 92.0293 83.3229 91.9473 83.6191 91.7832C83.9154 91.6191 84.1501 91.4186 84.3232 91.1816C84.501 90.9447 84.5967 90.7145 84.6104 90.4912L85.1504 91.0996C85.1185 91.291 85.0319 91.5029 84.8906 91.7354C84.7493 91.9678 84.5602 92.1911 84.3232 92.4053C84.0908 92.6149 83.8128 92.7904 83.4893 92.9316C83.1702 93.0684 82.8102 93.1367 82.4092 93.1367C81.9079 93.1367 81.4681 93.0387 81.0898 92.8428C80.7161 92.6468 80.4245 92.3848 80.2148 92.0566C80.0098 91.724 79.9072 91.3525 79.9072 90.9424C79.9072 90.5459 79.9847 90.1973 80.1396 89.8965C80.2946 89.5911 80.5179 89.3382 80.8096 89.1377C81.1012 88.9326 81.4521 88.7777 81.8623 88.6729C82.2725 88.568 82.7305 88.5156 83.2363 88.5156H84.7061ZM90.9379 85.6035V86.5742H86.9389V85.6035H90.9379ZM88.2924 83.8057H89.557V91.168C89.557 91.4186 89.5958 91.6077 89.6732 91.7354C89.7507 91.863 89.851 91.9473 89.974 91.9883C90.0971 92.0293 90.2292 92.0498 90.3705 92.0498C90.4753 92.0498 90.5847 92.0407 90.6986 92.0225C90.8171 91.9997 90.906 91.9814 90.9652 91.9678L90.9721 93C90.8718 93.0319 90.7396 93.0615 90.5756 93.0889C90.4161 93.1208 90.2224 93.1367 89.9945 93.1367C89.6846 93.1367 89.3998 93.0752 89.14 92.9521C88.8803 92.8291 88.6729 92.624 88.518 92.3369C88.3676 92.0452 88.2924 91.6533 88.2924 91.1611V83.8057ZM98.1721 92.2344L100.23 85.6035H101.583L98.6164 94.1416C98.548 94.3239 98.4569 94.5199 98.343 94.7295C98.2336 94.9437 98.0923 95.1465 97.9191 95.3379C97.746 95.5293 97.5363 95.6842 97.2902 95.8027C97.0487 95.9258 96.7593 95.9873 96.4221 95.9873C96.3218 95.9873 96.1942 95.9736 96.0393 95.9463C95.8843 95.9189 95.7749 95.8962 95.7111 95.8779L95.7043 94.8525C95.7408 94.8571 95.7977 94.8617 95.8752 94.8662C95.9572 94.8753 96.0142 94.8799 96.0461 94.8799C96.3332 94.8799 96.577 94.8411 96.7775 94.7637C96.9781 94.6908 97.1467 94.5654 97.2834 94.3877C97.4247 94.2145 97.5454 93.9753 97.6457 93.6699L98.1721 92.2344ZM96.6613 85.6035L98.5822 91.3457L98.9104 92.6787L98.0012 93.1436L95.2805 85.6035H96.6613ZM102.38 89.3838V89.2266C102.38 88.6934 102.458 88.1989 102.613 87.7432C102.768 87.2829 102.991 86.8841 103.283 86.5469C103.574 86.2051 103.928 85.9408 104.342 85.7539C104.757 85.5625 105.222 85.4668 105.737 85.4668C106.256 85.4668 106.724 85.5625 107.138 85.7539C107.558 85.9408 107.913 86.2051 108.205 86.5469C108.501 86.8841 108.726 87.2829 108.881 87.7432C109.036 88.1989 109.114 88.6934 109.114 89.2266V89.3838C109.114 89.917 109.036 90.4115 108.881 90.8672C108.726 91.3229 108.501 91.7217 108.205 92.0635C107.913 92.4007 107.56 92.665 107.145 92.8564C106.735 93.0433 106.27 93.1367 105.751 93.1367C105.231 93.1367 104.764 93.0433 104.349 92.8564C103.935 92.665 103.579 92.4007 103.283 92.0635C102.991 91.7217 102.768 91.3229 102.613 90.8672C102.458 90.4115 102.38 89.917 102.38 89.3838ZM103.645 89.2266V89.3838C103.645 89.7529 103.688 90.1016 103.775 90.4297C103.862 90.7533 103.991 91.0404 104.165 91.291C104.342 91.5417 104.563 91.7399 104.828 91.8857C105.092 92.027 105.4 92.0977 105.751 92.0977C106.097 92.0977 106.4 92.027 106.66 91.8857C106.924 91.7399 107.143 91.5417 107.316 91.291C107.489 91.0404 107.619 90.7533 107.706 90.4297C107.797 90.1016 107.842 89.7529 107.842 89.3838V89.2266C107.842 88.862 107.797 88.5179 107.706 88.1943C107.619 87.8662 107.487 87.5768 107.309 87.3262C107.136 87.071 106.917 86.8704 106.653 86.7246C106.393 86.5788 106.088 86.5059 105.737 86.5059C105.391 86.5059 105.085 86.5788 104.821 86.7246C104.561 86.8704 104.342 87.071 104.165 87.3262C103.991 87.5768 103.862 87.8662 103.775 88.1943C103.688 88.5179 103.645 88.862 103.645 89.2266ZM115.325 91.291V85.6035H116.597V93H115.387L115.325 91.291ZM115.564 89.7324L116.091 89.7188C116.091 90.2109 116.038 90.6667 115.934 91.0859C115.833 91.5007 115.669 91.8607 115.441 92.166C115.214 92.4714 114.915 92.7106 114.546 92.8838C114.177 93.0524 113.728 93.1367 113.199 93.1367C112.839 93.1367 112.509 93.0843 112.208 92.9795C111.912 92.8747 111.657 92.7129 111.442 92.4941C111.228 92.2754 111.062 91.9906 110.943 91.6396C110.829 91.2887 110.772 90.8672 110.772 90.375V85.6035H112.037V90.3887C112.037 90.7214 112.074 90.9971 112.146 91.2158C112.224 91.43 112.326 91.6009 112.454 91.7285C112.586 91.8516 112.732 91.9382 112.892 91.9883C113.056 92.0384 113.224 92.0635 113.397 92.0635C113.935 92.0635 114.361 91.9609 114.676 91.7559C114.99 91.5462 115.216 91.266 115.353 90.915C115.494 90.5596 115.564 90.1654 115.564 89.7324ZM119.397 82.5V83.252L119.253 85.7676H118.371L118.378 83.3682V82.5H119.397ZM122.546 82.5V93H121.274V82.5H122.546ZM126.05 82.5V93H124.779V82.5H126.05ZM133.127 82.5V93H131.855V82.5H133.127ZM136.631 85.6035V93H135.36V85.6035H136.631ZM135.264 83.6416C135.264 83.4365 135.326 83.2633 135.449 83.1221C135.576 82.9808 135.763 82.9102 136.009 82.9102C136.251 82.9102 136.435 82.9808 136.563 83.1221C136.695 83.2633 136.761 83.4365 136.761 83.6416C136.761 83.8376 136.695 84.0062 136.563 84.1475C136.435 84.2842 136.251 84.3525 136.009 84.3525C135.763 84.3525 135.576 84.2842 135.449 84.1475C135.326 84.0062 135.264 83.8376 135.264 83.6416ZM140.033 82.5V93H138.762V82.5H140.033ZM144.552 85.6035L141.325 89.0557L139.52 90.9287L139.418 89.582L140.71 88.0371L143.007 85.6035H144.552ZM143.396 93L140.758 89.4727L141.414 88.3447L144.887 93H143.396ZM148.89 93.1367C148.375 93.1367 147.908 93.0501 147.488 92.877C147.074 92.6992 146.716 92.4508 146.415 92.1318C146.119 91.8128 145.891 91.4346 145.732 90.9971C145.572 90.5596 145.492 90.0811 145.492 89.5615V89.2744C145.492 88.6729 145.581 88.1374 145.759 87.668C145.937 87.194 146.178 86.793 146.484 86.4648C146.789 86.1367 147.135 85.8883 147.523 85.7197C147.91 85.5511 148.311 85.4668 148.726 85.4668C149.254 85.4668 149.71 85.5579 150.093 85.7402C150.48 85.9225 150.797 86.1777 151.043 86.5059C151.289 86.8294 151.472 87.2122 151.59 87.6543C151.709 88.0918 151.768 88.5703 151.768 89.0898V89.6572H146.244V88.625H150.503V88.5293C150.485 88.2012 150.417 87.8822 150.298 87.5723C150.184 87.2624 150.002 87.0072 149.751 86.8066C149.501 86.6061 149.159 86.5059 148.726 86.5059C148.439 86.5059 148.174 86.5674 147.933 86.6904C147.691 86.8089 147.484 86.9867 147.311 87.2236C147.138 87.4606 147.003 87.75 146.907 88.0918C146.812 88.4336 146.764 88.8278 146.764 89.2744V89.5615C146.764 89.9124 146.812 90.2428 146.907 90.5527C147.008 90.8581 147.151 91.127 147.338 91.3594C147.529 91.5918 147.76 91.7741 148.029 91.9062C148.302 92.0384 148.612 92.1045 148.958 92.1045C149.405 92.1045 149.783 92.0133 150.093 91.8311C150.403 91.6488 150.674 91.4049 150.906 91.0996L151.672 91.708C151.513 91.9495 151.31 92.1797 151.064 92.3984C150.818 92.6172 150.515 92.7949 150.154 92.9316C149.799 93.0684 149.377 93.1367 148.89 93.1367Z" fill="#81BECB"/>
</svg>
